# xmcd CD database file
#
# Track frame offsets:
#	150
#	17452
#	39935
#	60229
#	81074
#	104642
#	132326
#	158476
#	174470
#	194147
#	220070
#	248961
#
# Disc length: 3550 seconds
#
# Revision: 0
# Processed by: cddbd v1.5.2PL0 Copyright (c) Steve Scherf et al.
# Submitted via: CDex 1.51
#
DISCID=980ddc0c
DTITLE=Lucinda Williams - Blessed [CD1)
DYEAR=2011
DGENRE=Country
TTITLE0=Buttercup
TTITLE1=I Don't Know How You're Livin'
TTITLE2=Copenhagen
TTITLE3=Born To Be Loved
TTITLE4=Seeing Black
TTITLE5=Soldier's Song
TTITLE6=Blessed
TTITLE7=Sweet Love
TTITLE8=Ugly Truth
TTITLE9=Convince Me
TTITLE10=Awakening
TTITLE11=Kiss Like Your Kiss
EXTD=YEAR: 2011
EXTT0=
EXTT1=
EXTT2=
EXTT3=
EXTT4=
EXTT5=
EXTT6=
EXTT7=
EXTT8=
EXTT9=
EXTT10=
EXTT11=
PLAYORDER=
